<svg width="64" height="64" viewBox="0 0 64 64" fill="none" xmlns="http://www.w3.org/2000/svg">
<path d="M41.9621 5.1084L37.5156 11.4363" stroke="#0D8570" stroke-width="0.867511" stroke-linecap="round" stroke-linejoin="round"/>
<path d="M31.1062 8.69779L29.8594 0.496094" stroke="#0D8570" stroke-width="0.867511" stroke-linecap="round" stroke-linejoin="round"/>
<path d="M42.0625 16.9593L49.9814 15.668" stroke="#0D8570" stroke-width="0.867511" stroke-linecap="round" stroke-linejoin="round"/>
<path d="M63.4699 47.0073C59.8683 45.7681 47.9959 42.4467 40.5222 40.3151C37.8778 39.5715 34.9677 39.2741 32.4022 40.2804C30.9879 40.8356 29.7698 41.8147 28.59 42.7863C27.6089 43.5868 26.8239 44.1594 25.8498 44.9674C25.0737 45.5746 24.1801 46.0011 23.2301 46.2179C22.2803 46.4348 21.2964 46.4369 20.3456 46.2241C19.3693 45.9986 17.1795 45.1211 16.184 45.0121C16.0129 44.9772 15.8369 44.9783 15.6662 45.0153C15.4956 45.0524 15.334 45.1245 15.1909 45.2277C14.9276 45.4607 14.8965 45.9713 15.2052 46.1399C14.3796 45.7879 10.0408 44.4296 9.17929 44.1842C7.17864 43.6241 6.37694 44.2437 6.17591 44.8634C6.03711 45.2946 7.63333 46.0481 8.00905 46.2737C6.75505 45.716 3.94073 44.898 2.77526 44.6552C0.77461 44.2412 -0.675629 45.2772 0.324701 45.8945C3.26825 47.7236 9.72015 51.7911 12.6493 53.6475C9.11229 53.6301 6.09694 53.6921 3.50757 54.1829C1.72229 54.5299 1.12401 55.2883 0.922984 55.7692C0.904192 55.82 0.896468 55.8745 0.900361 55.9287C0.904254 55.9829 0.919669 56.0356 0.945505 56.0831C0.97134 56.1304 1.00696 56.1712 1.04981 56.2027C1.09267 56.2341 1.1417 56.2554 1.1934 56.2649C3.36398 56.6491 14.5136 58.6171 18.2253 59.0236C21.9371 59.4301 23.2892 59.4376 25.7613 58.9344C30.7869 57.9082 35.9369 54.2869 40.3594 50.7377C48.7976 55.8361 55.3309 59.8193 62.5389 63.9882C63.032 56.9664 63.0703 54.7431 63.4699 47.0073Z" fill="#DCE9E2"/>
<path d="M25.2851 45.9014C22.3319 48.6104 19.5416 50.8239 16.5836 53.5329C16.1241 53.9543 15.6264 54.5987 15.9279 55.149C16.0554 55.3478 16.2445 55.4955 16.464 55.5679C17.3088 55.8926 18.2493 55.5679 19.0654 55.1639C21.3771 54.0361 23.4208 52.3581 25.7781 51.3344C28.693 50.0679 32.1486 49.7531 34.3934 47.4431" stroke="#70B3A7" stroke-width="0.867511" stroke-linecap="round" stroke-linejoin="round"/>
<path d="M15.4766 46.4717C17.1709 47.2475 19.363 48.3579 21.0574 49.1336" stroke="#70B3A7" stroke-width="0.867511" stroke-linecap="round" stroke-linejoin="round"/>
<path d="M8.13281 46.6777C12.0839 48.6978 14.5009 49.8999 18.2534 51.4813" stroke="#70B3A7" stroke-width="0.867511" stroke-linecap="round" stroke-linejoin="round"/>
<path d="M12.3125 53.9371C13.474 53.8578 14.6363 53.833 15.7993 53.8627" stroke="#70B3A7" stroke-width="0.867511" stroke-linecap="round" stroke-linejoin="round"/>
<path d="M16.481 15.0677C12.2069 13.9202 7.30338 16.8028 6.05416 21.1799C4.80495 25.5572 6.99466 30.3111 9.88317 33.8209C12.7716 37.3306 17.7111 41.5541 21.399 44.3797C24.8235 41.2269 26.8505 39.7174 30.2894 36.2003C33.5441 32.8715 36.4182 28.8636 37.0907 24.1766C37.4737 21.5097 37.0908 18.5501 35.3006 16.5895C33.2952 14.3836 29.8634 13.9796 27.164 15.1693C24.7086 16.255 22.976 18.3098 22.4136 20.6743C21.9342 19.3138 21.1445 18.0934 20.1115 17.1172C19.0785 16.141 17.8329 15.4379 16.481 15.0677Z" fill="#70B3A7"/>
</svg>
