<svg width="64" height="64" viewBox="0 0 64 64" fill="none" xmlns="http://www.w3.org/2000/svg">
<path d="M61.6846 23.2804C58.5283 13.0661 49.1496 6.91091 34.8598 4.96606C22.9788 3.3471 8.82322 7.42971 2.51337 21.1661C-3.93663 35.205 2.70316 48.613 14.7418 54.2755C23.7934 58.5354 40.1768 61.3145 51.4271 54.6274C64.4439 46.8768 64.8848 32.6058 61.6846 23.2804Z" fill="#DCE9E2"/>
<path d="M39.8898 63.9868L12.0926 60.1076C11.7806 60.0627 11.5012 59.9095 11.3153 59.6815C11.1293 59.4533 11.0519 59.1689 11.0998 58.8901L19.3367 11.8853C19.387 11.6067 19.5586 11.357 19.8139 11.1905C20.0691 11.0241 20.3877 10.9543 20.7003 10.9963L48.4976 14.8756C48.8095 14.9205 49.0889 15.0737 49.2749 15.3017C49.4609 15.5298 49.5383 15.8143 49.4903 16.0931L41.2534 63.09C41.2051 63.3701 41.0345 63.6218 40.779 63.7898C40.5234 63.9579 40.2037 64.0288 39.8898 63.9868Z" fill="#70B3A7"/>
<path d="M39.4767 55.4016L46.3042 16.4732L21.8822 13.0586L15.0547 51.9869L39.4767 55.4016Z" fill="white"/>
<path d="M26.4668 59.1015C27.4408 59.1015 28.2304 58.3965 28.2304 57.5268C28.2304 56.6572 27.4408 55.9521 26.4668 55.9521C25.4928 55.9521 24.7031 56.6572 24.7031 57.5268C24.7031 58.3965 25.4928 59.1015 26.4668 59.1015Z" fill="#00856F"/>
<path d="M20.9353 37.2806C20.8412 37.2661 20.7448 37.2686 20.6519 37.288C20.559 37.3073 20.4714 37.3432 20.3942 37.3934C20.3172 37.4436 20.2522 37.5071 20.203 37.5802C20.154 37.6533 20.1219 37.7344 20.1085 37.8188C20.0952 37.9031 20.101 37.989 20.1256 38.0713C20.1503 38.1537 20.193 38.2308 20.2516 38.298C20.3103 38.3653 20.3834 38.4213 20.4667 38.4629C20.55 38.5044 20.6418 38.5305 20.7368 38.5398C21.4934 38.6336 22.2641 38.5741 22.9915 38.3656C23.7189 38.157 24.3843 37.8049 24.9384 37.3353C24.6994 36.8921 24.5322 36.4207 24.442 35.9353C24.0499 36.4225 23.5165 36.8053 22.8992 37.0422C22.282 37.2792 21.604 37.3616 20.9382 37.2806H20.9353ZM25.0874 33.3049C25.1685 33.6759 25.1813 34.0564 25.1252 34.4311C24.9996 35.2365 25.1164 36.0572 25.4639 36.8087C25.5107 36.9157 25.5692 37.0277 25.6275 37.1294C25.6859 37.2311 25.7443 37.3302 25.8056 37.424C26.0033 37.7216 26.2374 37.9988 26.5034 38.2504C26.9627 38.6809 27.5124 39.0264 28.1213 39.2671C28.7302 39.5078 29.3862 39.6391 30.052 39.6534C30.7176 39.6677 31.38 39.5647 32.001 39.3503C32.6221 39.136 33.1899 38.8145 33.6718 38.4042C33.4346 37.9607 33.2694 37.4894 33.1812 37.0042C32.7899 37.493 32.2563 37.8767 31.638 38.1138C31.0199 38.351 30.3407 38.4325 29.6744 38.3495C29.0079 38.2665 28.3798 38.0222 27.8578 37.643C27.3359 37.2639 26.9402 36.7644 26.7137 36.1986C26.6507 36.0416 26.602 35.8804 26.5677 35.7164C26.485 35.3455 26.4722 34.9648 26.5298 34.5902C26.6522 33.7848 26.5353 32.9649 26.191 32.2126C26.1414 32.1056 26.0859 31.9935 26.0275 31.8945C25.9692 31.7954 25.9108 31.6964 25.8465 31.5973C25.457 31.0112 24.9249 30.5109 24.2895 30.1332C23.6543 29.7554 22.932 29.5101 22.1763 29.4152C21.9887 29.392 21.7988 29.4362 21.6479 29.5382C21.4971 29.6401 21.3978 29.7914 21.3718 29.9588C21.3458 30.1261 21.3955 30.2958 21.5096 30.4304C21.6237 30.5652 21.7931 30.6538 21.9805 30.677C22.6461 30.7608 23.2736 31.0052 23.7953 31.3837C24.3171 31.7622 24.7132 32.2606 24.9413 32.8252C25.0062 32.9832 25.0579 33.1453 25.0961 33.3101L25.0874 33.3049ZM39.4355 32.8487C39.6188 32.8648 39.802 32.817 39.9466 32.7153C40.0913 32.6136 40.1861 32.4658 40.2115 32.303C40.2367 32.1402 40.1905 31.975 40.0823 31.842C39.9741 31.7089 39.8125 31.6184 39.6312 31.5895C38.8754 31.4956 38.1056 31.5545 37.3788 31.7621C36.652 31.9697 35.9868 32.3206 35.4324 32.7887C35.6696 33.233 35.8347 33.7054 35.9229 34.1912C36.3162 33.7052 36.8497 33.3236 37.4669 33.0871C38.084 32.8506 38.7613 32.7682 39.4268 32.8487H39.4355ZM33.8118 34.4128C33.8961 34.7837 33.9089 35.1645 33.8499 35.5391C33.7266 36.3447 33.8445 37.165 34.1915 37.9167C34.242 38.0262 34.2976 38.133 34.3579 38.2374C34.4115 38.3383 34.4709 38.4366 34.5361 38.532C34.9245 39.119 35.4564 39.6202 36.0918 39.9985C36.7272 40.3768 37.45 40.6222 38.2063 40.7167C38.3903 40.7346 38.575 40.6879 38.721 40.5864C38.8672 40.4849 38.9633 40.3367 38.9891 40.173C39.0149 40.0093 38.9683 39.8431 38.8593 39.7096C38.7502 39.576 38.5873 39.4856 38.4049 39.4575C37.7381 39.3727 37.1096 39.1274 36.5871 38.7481C36.0645 38.3687 35.6673 37.8696 35.4382 37.304C35.3768 37.1455 35.327 36.9836 35.2893 36.8191C35.2052 36.4484 35.1924 36.0676 35.2515 35.6929C35.3741 34.8876 35.2572 34.0676 34.9126 33.3153C34.8602 33.2085 34.8075 33.0964 34.7492 32.9946C34.6908 32.8929 34.6324 32.7965 34.5652 32.7C34.1764 32.114 33.6445 31.6135 33.0094 31.236C32.3743 30.8585 31.6521 30.6136 30.8964 30.5194C30.1408 30.4253 29.371 30.4842 28.6444 30.6921C27.9177 30.8999 27.2529 31.2512 26.6991 31.7198C26.9356 32.164 27.1026 32.635 27.1955 33.1198C27.5873 32.6319 28.1211 32.2489 28.7392 32.0124C29.3572 31.7758 30.0358 31.6945 30.7018 31.7775C31.3678 31.8605 31.9958 32.1044 32.5176 32.483C33.0396 32.8615 33.4356 33.3604 33.663 33.9254C33.7245 34.0848 33.7743 34.2477 33.8118 34.4128Z" fill="#008071"/>
<path d="M31.0173 1.60502e-05H5.46256C4.89647 1.60502e-05 4.35357 0.200799 3.95329 0.558194C3.55301 0.91559 3.32812 1.40032 3.32812 1.90576V15.5823C3.32812 16.0877 3.55301 16.5725 3.95329 16.9298C4.35357 17.2872 4.89647 17.488 5.46256 17.488H15.7375L22.7453 23.4841L21.7468 17.488H31.0261C31.5921 17.488 32.135 17.2872 32.5354 16.9298C32.9356 16.5725 33.1605 16.0877 33.1605 15.5823V1.90576C33.1605 1.65483 33.105 1.40638 32.9972 1.17465C32.8894 0.942923 32.7313 0.732488 32.5323 0.555422C32.3331 0.378354 32.0967 0.238142 31.8367 0.142831C31.5768 0.0475197 31.2984 -0.00101374 31.0173 1.60502e-05Z" fill="#00856F"/>
<path d="M11.0078 9.11637L14.6605 12.3778L23.1194 4.8252" stroke="white" stroke-width="0.912461" stroke-linecap="round" stroke-linejoin="round"/>
</svg>
