<svg width="64" height="64" viewBox="0 0 64 64" fill="none" xmlns="http://www.w3.org/2000/svg">
<g clip-path="url(#clip0_155_64)">
<path opacity="0.15" d="M-0.84375 60.2933C-0.84375 60.6049 -0.04605 60.9135 1.50381 61.2015C3.05366 61.4894 5.32532 61.7511 8.18908 61.9715C11.0528 62.1918 14.4526 62.3667 18.1943 62.4859C21.936 62.6052 25.9463 62.6666 29.9962 62.6666C34.0462 62.6666 38.0565 62.6052 41.7982 62.4859C45.5399 62.3667 48.9397 62.1918 51.8034 61.9715C54.6672 61.7511 56.9388 61.4894 58.4887 61.2015C60.0386 60.9135 60.8363 60.6049 60.8363 60.2933C60.8363 59.6638 57.587 59.0601 51.8034 58.6151C46.0198 58.17 38.1755 57.9199 29.9962 57.9199C21.817 57.9199 13.9727 58.17 8.18908 58.6151C2.40545 59.0601 -0.84375 59.6638 -0.84375 60.2933Z" fill="#DCE9E2"/>
<path d="M57.9962 16.7599C57.9963 16.5522 57.9551 16.3465 57.8752 16.1547C57.7953 15.963 57.6782 15.7889 57.5307 15.6427C57.3832 15.4964 57.2082 15.3808 57.0158 15.3025C56.8233 15.2242 56.6173 15.1848 56.4096 15.1866H12.1562V58.6666H53.9962C55.0571 58.6666 56.0745 58.2452 56.8247 57.495C57.5748 56.7449 57.9962 55.7274 57.9962 54.6666V16.7599Z" fill="#DCE9E2" stroke="#00856F" stroke-width="0.5" stroke-linecap="round" stroke-linejoin="round"/>
<path d="M50.8907 55.5066C50.8906 56.3355 51.2162 57.1313 51.7973 57.7224C52.3785 58.3135 53.1686 58.6526 53.9974 58.6666H5.82406C4.98598 58.6666 4.18222 58.3336 3.58961 57.741C2.99699 57.1484 2.66406 56.3446 2.66406 55.5066V8.06655C2.66406 7.85881 2.70519 7.65313 2.78509 7.46137C2.86499 7.26961 2.98207 7.09557 3.12959 6.9493C3.2771 6.80303 3.45212 6.68741 3.64455 6.60914C3.83697 6.53086 4.043 6.49146 4.25073 6.49322H49.3041C49.5118 6.49146 49.7178 6.53086 49.9102 6.60914C50.1027 6.68741 50.2777 6.80303 50.4252 6.9493C50.5727 7.09557 50.6898 7.26961 50.7697 7.46137C50.8496 7.65313 50.8907 7.85881 50.8907 8.06655V55.5066Z" fill="#F0F0F0"/>
<path d="M53.9974 58.6668C53.1593 58.6668 52.3556 58.3339 51.7629 57.7413C51.1703 57.1487 50.8374 56.3449 50.8374 55.5068V54.3202H5.82406C4.98598 54.3202 4.18222 53.9872 3.58961 53.3946C2.99699 52.802 2.66406 51.9982 2.66406 51.1602V55.5068C2.66406 56.3449 2.99699 57.1487 3.58961 57.7413C4.18222 58.3339 4.98598 58.6668 5.82406 58.6668H53.9974Z" fill="#E0E0E0"/>
<path d="M50.8907 55.5066C50.8906 56.3355 51.2162 57.1313 51.7973 57.7224C52.3785 58.3135 53.1686 58.6526 53.9974 58.6666H5.82406C4.98598 58.6666 4.18222 58.3336 3.58961 57.741C2.99699 57.1484 2.66406 56.3446 2.66406 55.5066V8.06655C2.66406 7.85881 2.70519 7.65313 2.78509 7.46137C2.86499 7.26961 2.98207 7.09557 3.12959 6.9493C3.2771 6.80303 3.45212 6.68741 3.64455 6.60914C3.83697 6.53086 4.043 6.49146 4.25073 6.49322H49.3041C49.5118 6.49146 49.7178 6.53086 49.9102 6.60914C50.1027 6.68741 50.2777 6.80303 50.4252 6.9493C50.5727 7.09557 50.6898 7.26961 50.7697 7.46137C50.8496 7.65313 50.8907 7.85881 50.8907 8.06655V55.5066Z" stroke="#00856F" stroke-width="0.5" stroke-linecap="round" stroke-linejoin="round"/>
<path d="M7.41406 12.0264H45.3607V20.7197H7.41406V12.0264ZM8.20073 25.4664H28.7607V46.0264H8.20073V25.4664Z" fill="#70B2A6" stroke="#00856F" stroke-width="0.5" stroke-linecap="round" stroke-linejoin="round"/>
<path d="M33.5098 36.187H45.3631M33.5098 31.2803H45.3631M33.5098 26.3604H45.3631M33.5098 41.107H45.3631M33.5098 46.0137H45.3631M8.20312 52.347H45.3631" stroke="#00856F" stroke-width="0.5" stroke-linecap="round" stroke-linejoin="round"/>
<path d="M23.0965 37.3332C22.2554 35.6554 21.6839 33.8556 21.4031 31.9999C21.3929 31.7983 21.3055 31.6083 21.159 31.4693C21.0126 31.3303 20.8183 31.253 20.6165 31.2532H16.7498C16.5631 31.2481 16.3811 31.3119 16.2385 31.4324C16.0959 31.5529 16.0026 31.7217 15.9765 31.9065C15.6107 33.6229 15.0609 35.2948 14.3365 36.8932C12.9653 39.7686 10.8471 42.223 8.20312 43.9999V44.2399C8.20487 44.4745 8.25281 44.7065 8.34422 44.9226C8.43562 45.1387 8.56869 45.3347 8.73584 45.4994C8.90299 45.664 9.10093 45.7942 9.31837 45.8823C9.53582 45.9705 9.76849 46.015 10.0031 46.0132H26.9631C27.4405 46.0132 27.8984 45.8236 28.2359 45.486C28.5735 45.1484 28.7631 44.6906 28.7631 44.2132V42.8799C26.3181 41.7011 24.3273 39.7525 23.0965 37.3332Z" fill="#DCE9E1" stroke="#00856F" stroke-width="0.5" stroke-linecap="round" stroke-linejoin="round"/>
</g>
<defs>
<clipPath id="clip0_155_64">
<rect width="64" height="64" fill="white"/>
</clipPath>
</defs>
</svg>
