<svg width="132" height="22" viewBox="0 0 132 22" fill="none" xmlns="http://www.w3.org/2000/svg">
<path d="M43.1525 19.1173C41.5695 19.1119 40.0181 18.7332 38.6655 18.022C37.3128 17.3107 36.21 16.2938 35.4758 15.0807C35.0869 16.1515 34.528 17.1703 33.8152 18.1081C34.9343 19.3204 36.3541 20.2995 37.9697 20.9732C39.5852 21.6468 41.3551 21.9977 43.1486 22C43.5786 21.9821 43.9842 21.8217 44.2813 21.5521C44.5783 21.2825 44.744 20.9243 44.744 20.5519C44.744 20.1795 44.5783 19.8213 44.2813 19.5517C43.9842 19.2821 43.5786 19.1217 43.1486 19.1038L43.1525 19.1173ZM34.9391 8.98558C35.0859 8.62305 35.2654 8.27101 35.4758 7.93273C36.2097 6.71941 37.3124 5.70231 38.6651 4.99101C40.0179 4.27971 41.5694 3.90118 43.1525 3.8962C43.5825 3.87827 43.9881 3.71787 44.2851 3.44827C44.5822 3.17866 44.7479 2.82052 44.7479 2.4481C44.7479 2.07568 44.5822 1.71754 44.2851 1.44794C43.9881 1.17833 43.5825 1.01793 43.1525 1C41.3586 1.00218 39.5883 1.35342 37.9726 2.0277C36.357 2.70198 34.9375 3.68203 33.8191 4.89524C33.6325 5.09371 33.4575 5.30226 33.2863 5.51081C33.1152 5.71937 32.9441 5.95819 32.7886 6.18357C31.6998 7.80218 31.1293 9.6425 31.1358 11.5151C31.134 12.764 30.7803 13.9936 30.1052 15.0975C29.3711 16.3097 28.2675 17.325 26.914 18.0334C25.5605 18.7417 24.0086 19.1162 22.4266 19.1162C20.8446 19.1162 19.2928 18.7417 17.9392 18.0334C16.5857 17.325 15.4821 16.3097 14.748 15.0975C14.3607 16.1688 13.8018 17.1879 13.0875 18.1249C14.2062 19.337 15.6261 20.3157 17.2418 20.9883C18.8576 21.6609 20.6277 22.0101 22.4208 22.0101C24.2139 22.0101 25.984 21.6609 27.5997 20.9883C29.2155 20.3157 30.6354 19.337 31.7541 18.1249C31.9408 17.9265 32.1158 17.7179 32.283 17.506C32.4502 17.2941 32.6252 17.062 32.7808 16.8333C33.8706 15.222 34.4438 13.3886 34.4413 11.5219C34.4405 10.6607 34.6074 9.8055 34.9352 8.99231L34.9391 8.98558ZM1.68523 3.90966C3.26587 3.91469 4.81513 4.29179 6.16683 5.00053C7.51853 5.70927 8.62169 6.7229 9.35801 7.93273C9.74451 6.86118 10.3035 5.84205 11.0186 4.90533C9.89985 3.69273 8.48013 2.71333 6.86451 2.03964C5.2489 1.36595 3.47878 1.01523 1.68523 1.01346C1.25517 1.03139 0.849578 1.19179 0.552548 1.46139C0.255517 1.731 0.0898264 2.08914 0.0898264 2.46156C0.0898264 2.83398 0.255517 3.19211 0.552548 3.46172C0.849578 3.73133 1.25517 3.89173 1.68523 3.90966V3.90966ZM14.2075 8.98558C14.3546 8.62369 14.5327 8.27177 14.7402 7.93273C15.4734 6.71961 16.5766 5.70334 17.9303 4.9942C19.2839 4.28507 20.8363 3.91016 22.4188 3.91016C24.0014 3.91016 25.5537 4.28507 26.9074 4.9942C28.2611 5.70334 29.3643 6.71961 30.0975 7.93273C30.4823 6.86062 31.0414 5.8413 31.758 4.90533C30.6401 3.69212 29.2205 2.71243 27.6047 2.0391C25.9888 1.36577 24.2183 1.01611 22.4247 1.01611C20.6311 1.01611 18.8606 1.36577 17.2447 2.0391C15.6288 2.71243 14.2092 3.69212 13.0913 4.90533C12.9047 5.1038 12.7297 5.31235 12.5586 5.5209C12.3875 5.72946 12.2202 5.96828 12.0647 6.19366C10.9749 7.80611 10.4017 9.64066 10.4041 11.5084C10.4053 12.3688 10.2369 13.2231 9.90634 14.0346C9.75696 14.4011 9.57358 14.7566 9.35801 15.0975C8.62314 16.3101 7.52019 17.3266 6.16766 18.0378C4.81514 18.749 3.26415 19.128 1.68134 19.1341C1.25128 19.152 0.845689 19.3124 0.548659 19.582C0.251628 19.8516 0.0859375 20.2098 0.0859375 20.5822C0.0859375 20.9546 0.251628 21.3127 0.548659 21.5823C0.845689 21.8519 1.25128 22.0123 1.68134 22.0303C3.47479 22.028 5.24473 21.6771 6.86025 21.0034C8.47578 20.3298 9.89559 19.3506 11.0147 18.1384C11.2013 17.9399 11.3763 17.7314 11.5475 17.5195C11.7186 17.3075 11.8858 17.0754 12.0452 16.8467C13.1321 15.2346 13.7038 13.4015 13.7019 11.5353C13.7004 10.6738 13.8687 9.81835 14.1997 9.00577" fill="#0B8470"/>
<path d="M52 16C52.0933 16 52.1867 15.9067 52.28 15.72C52.3733 15.5333 52.42 15.2267 52.42 14.8V5.2C52.42 4.77333 52.3733 4.47333 52.28 4.3C52.1867 4.11333 52.0933 4.01333 52 4H58.28C59.4533 4 60.44 4.11333 61.24 4.34C62.04 4.56667 62.68 4.88 63.16 5.28C63.6533 5.68 64.0267 6.14 64.28 6.66C64.5333 7.16667 64.7 7.70667 64.78 8.28C64.8733 8.85333 64.92 9.43333 64.92 10.02C64.92 10.5533 64.8733 11.1067 64.78 11.68C64.7 12.24 64.5267 12.78 64.26 13.3C64.0067 13.8067 63.6333 14.2667 63.14 14.68C62.66 15.08 62.02 15.4 61.22 15.64C60.4333 15.88 59.4533 16 58.28 16H52ZM56.3 13.78H57.12C58.2667 13.78 59.1867 13.6867 59.88 13.5C60.5733 13.3 61.08 12.94 61.4 12.42C61.72 11.9 61.88 11.1467 61.88 10.16V9.8C61.88 8.76 61.7333 7.99333 61.44 7.5C61.1467 6.99333 60.6533 6.66 59.96 6.5C59.2667 6.34 58.32 6.26 57.12 6.26H56.3C55.9133 6.26 55.68 6.28667 55.6 6.34C55.5333 6.38 55.5 6.54 55.5 6.82V13.18C55.5 13.4733 55.5333 13.6467 55.6 13.7C55.68 13.7533 55.9133 13.78 56.3 13.78ZM71.4666 16.2C70.2666 16.2 69.3066 15.9667 68.5866 15.5C67.8799 15.02 67.5266 14.2533 67.5266 13.2C67.5266 12.4667 67.7132 11.8733 68.0866 11.42C68.4599 10.9667 68.9666 10.6333 69.6066 10.42C70.2599 10.1933 70.9999 10.08 71.8266 10.08C72.4399 10.08 72.9599 10.1333 73.3866 10.24C73.8266 10.3467 74.1799 10.46 74.4466 10.58C74.7132 10.7 74.8866 10.7867 74.9666 10.84C74.9666 10.28 74.9066 9.82667 74.7866 9.48C74.6666 9.12 74.4466 8.86 74.1266 8.7C73.8199 8.52667 73.3866 8.44 72.8266 8.44C72.0132 8.44 71.2932 8.52 70.6666 8.68C70.0399 8.84 69.5266 9.02667 69.1266 9.24C68.7399 9.45333 68.4732 9.63333 68.3266 9.78V9.18L68.1266 7.22C68.2199 7.16667 68.4666 7.08 68.8666 6.96C69.2666 6.84 69.8132 6.72667 70.5066 6.62C71.1999 6.5 72.0266 6.44 72.9866 6.44C74.3066 6.44 75.3132 6.63333 76.0066 7.02C76.6999 7.39333 77.1732 7.93333 77.4266 8.64C77.6932 9.34667 77.8266 10.2 77.8266 11.2V14.8C77.8266 15.1733 77.8666 15.4467 77.9466 15.62C78.0399 15.78 78.1332 15.9067 78.2266 16H74.9866V15.58L75.0266 15.2L74.9866 15.16C74.8799 15.28 74.7266 15.4 74.5266 15.52C74.3266 15.64 74.0799 15.7533 73.7866 15.86C73.4932 15.9533 73.1532 16.0333 72.7666 16.1C72.3799 16.1667 71.9466 16.2 71.4666 16.2ZM72.4066 14.18C72.9666 14.18 73.4332 14.14 73.8066 14.06C74.1932 13.9667 74.4866 13.8467 74.6866 13.7C74.8866 13.54 74.9866 13.3533 74.9866 13.14C74.9866 12.8333 74.7532 12.58 74.2866 12.38C73.8332 12.18 73.2132 12.08 72.4266 12.08C71.6666 12.08 71.1266 12.1867 70.8066 12.4C70.4999 12.6133 70.3466 12.88 70.3466 13.2C70.3466 13.6 70.5266 13.8667 70.8866 14C71.2466 14.12 71.7532 14.18 72.4066 14.18ZM85.8922 16.2C84.7055 16.2 83.7055 16.1333 82.8922 16C82.0789 15.8667 81.5189 15.7333 81.2122 15.6V15L80.7922 13.04C81.1389 13.2933 81.7855 13.5467 82.7322 13.8C83.6789 14.0533 84.8389 14.18 86.2122 14.18C86.6255 14.18 86.9522 14.1533 87.1922 14.1C87.4455 14.0467 87.6255 13.96 87.7322 13.84C87.8389 13.72 87.8922 13.5667 87.8922 13.38C87.8922 13.1533 87.8055 12.98 87.6322 12.86C87.4722 12.74 87.1789 12.6467 86.7522 12.58C86.3255 12.5 85.7055 12.4067 84.8922 12.3C83.8655 12.1667 83.0522 11.98 82.4522 11.74C81.8522 11.4867 81.4255 11.1667 81.1722 10.78C80.9322 10.38 80.8122 9.89333 80.8122 9.32C80.8122 8.78667 80.9389 8.30667 81.1922 7.88C81.4589 7.44 81.9122 7.09333 82.5522 6.84C83.2055 6.57333 84.1122 6.44 85.2722 6.44C86.3655 6.44 87.3255 6.50667 88.1522 6.64C88.9789 6.77333 89.5722 6.90667 89.9322 7.04V7.64L90.3322 9.4C90.0255 9.2 89.4255 8.99333 88.5322 8.78C87.6389 8.56667 86.5055 8.46 85.1322 8.46C84.5989 8.46 84.2189 8.51333 83.9922 8.62C83.7655 8.72667 83.6522 8.91333 83.6522 9.18C83.6522 9.31333 83.6855 9.42667 83.7522 9.52C83.8322 9.61333 83.9789 9.7 84.1922 9.78C84.4055 9.86 84.7122 9.94 85.1122 10.02C85.5122 10.0867 86.0389 10.16 86.6922 10.24C87.8255 10.3867 88.6789 10.5933 89.2522 10.86C89.8255 11.1133 90.2122 11.4333 90.4122 11.82C90.6122 12.1933 90.7122 12.6467 90.7122 13.18C90.7122 13.86 90.5389 14.4267 90.1922 14.88C89.8589 15.32 89.3322 15.6533 88.6122 15.88C87.9055 16.0933 86.9989 16.2 85.8922 16.2ZM97.1013 16.2C96.1813 16.2 95.5146 16.0067 95.1013 15.62C94.6879 15.22 94.4813 14.5733 94.4813 13.68V8.64H92.6813V6.64C93.2946 6.64 93.7746 6.56667 94.1213 6.42C94.4679 6.26 94.7146 5.98667 94.8613 5.6C95.0079 5.21333 95.0813 4.67333 95.0813 3.98H97.3213V6.64H100.741C100.648 6.90667 100.555 7.24 100.461 7.64C100.381 8.02667 100.341 8.36 100.341 8.64H97.3213V12.58C97.3213 13.1933 97.3679 13.6133 97.4613 13.84C97.5546 14.0667 97.7746 14.18 98.1213 14.18C98.3479 14.18 98.5946 14.1 98.8613 13.94C99.1413 13.78 99.4079 13.5867 99.6613 13.36C99.9279 13.12 100.148 12.8933 100.321 12.68V13.3L100.521 15.24C100.361 15.3733 100.121 15.52 99.8013 15.68C99.4813 15.8267 99.0879 15.9467 98.6213 16.04C98.1679 16.1467 97.6613 16.2 97.1013 16.2ZM107.634 20.88C106.86 20.88 106.147 20.8267 105.494 20.72C104.854 20.6133 104.294 20.48 103.814 20.32C103.347 20.1733 102.987 20.0267 102.734 19.88L103.134 16.88V16.3C103.32 16.66 103.614 17.04 104.014 17.44C104.414 17.84 104.914 18.18 105.514 18.46C106.114 18.74 106.794 18.88 107.554 18.88C108.047 18.88 108.46 18.7733 108.794 18.56C109.127 18.36 109.38 18.0467 109.554 17.62C109.727 17.1933 109.814 16.6667 109.814 16.04V15.72L109.854 15.36L109.814 15.32C109.627 15.52 109.374 15.6867 109.054 15.82C108.747 15.94 108.407 16.0333 108.034 16.1C107.674 16.1667 107.314 16.2 106.954 16.2C105.874 16.2 105.007 15.9867 104.354 15.56C103.714 15.1333 103.247 14.5533 102.954 13.82C102.674 13.0867 102.534 12.26 102.534 11.34C102.534 10.4067 102.674 9.57333 102.954 8.84C103.234 8.10667 103.694 7.52667 104.334 7.1C104.987 6.66 105.86 6.44 106.954 6.44C107.327 6.44 107.694 6.46667 108.054 6.52C108.414 6.57333 108.747 6.65333 109.054 6.76C109.36 6.85333 109.614 6.98667 109.814 7.16L109.854 7.14L109.814 6.76V6.64H113.054C112.96 6.65333 112.867 6.75333 112.774 6.94C112.694 7.12667 112.654 7.44 112.654 7.88V15.54C112.654 17.4733 112.24 18.8467 111.414 19.66C110.6 20.4733 109.34 20.88 107.634 20.88ZM107.494 14.18C107.96 14.18 108.367 14.1 108.714 13.94C109.06 13.78 109.327 13.4933 109.514 13.08C109.714 12.6667 109.814 12.0867 109.814 11.34C109.814 10.6067 109.714 10.0333 109.514 9.62C109.327 9.19333 109.06 8.89333 108.714 8.72C108.367 8.53333 107.96 8.44 107.494 8.44C107.054 8.44 106.674 8.53333 106.354 8.72C106.034 8.90667 105.787 9.21333 105.614 9.64C105.44 10.0667 105.354 10.64 105.354 11.36C105.354 12.0667 105.434 12.6267 105.594 13.04C105.767 13.4533 106.014 13.7467 106.334 13.92C106.654 14.0933 107.04 14.18 107.494 14.18ZM115.943 16C116.036 16 116.129 15.9067 116.223 15.72C116.316 15.5333 116.363 15.2267 116.363 14.8V7.84C116.363 7.41333 116.316 7.10667 116.223 6.92C116.143 6.73333 116.056 6.64 115.963 6.64H119.203V14.8C119.203 15.2267 119.243 15.5333 119.323 15.72C119.416 15.9067 119.509 16 119.603 16H115.943ZM117.562 5.12C117.069 5.12 116.676 4.98667 116.382 4.72C116.089 4.45333 115.943 4.08667 115.943 3.62C115.943 3.15333 116.083 2.78667 116.363 2.52C116.656 2.25333 117.056 2.12 117.562 2.12C118.069 2.12 118.463 2.25333 118.743 2.52C119.036 2.78667 119.183 3.15333 119.183 3.62C119.183 4.08667 119.036 4.45333 118.743 4.72C118.463 4.98667 118.069 5.12 117.562 5.12ZM122.411 16C122.505 16 122.591 15.9067 122.671 15.72C122.765 15.5333 122.811 15.2267 122.811 14.8V8.04C122.811 7.61333 122.765 7.31333 122.671 7.14C122.591 6.95333 122.505 6.85333 122.411 6.84C122.998 6.84 123.598 6.8 124.211 6.72C124.825 6.62667 125.305 6.53333 125.651 6.44V7.24L125.611 7.58L125.651 7.62C125.745 7.47333 125.891 7.31333 126.091 7.14C126.305 6.95333 126.571 6.79333 126.891 6.66C127.225 6.51333 127.611 6.44 128.051 6.44C128.705 6.44 129.285 6.53333 129.791 6.72C130.298 6.89333 130.658 7.07333 130.871 7.26L130.271 9.94V10.54C130.071 10.26 129.798 9.97333 129.451 9.68C129.118 9.38667 128.745 9.14 128.331 8.94C127.931 8.74 127.518 8.64 127.091 8.64C126.611 8.64 126.251 8.81333 126.011 9.16C125.771 9.50667 125.651 10.0533 125.651 10.8V14.8C125.651 15.2267 125.691 15.5333 125.771 15.72C125.865 15.9067 125.958 16 126.051 16H122.411Z" fill="#0B8470"/>
</svg>
